<?xml version="1.0" encoding="UTF-8" standalone="no"?>
<!-- Created with Inkscape (http://www.inkscape.org/) -->

<svg
   width="210mm"
   height="297mm"
   viewBox="0 0 210 297"
   version="1.1"
   id="svg5"
   inkscape:version="1.2.2 (732a01da63, 2022-12-09)"
   sodipodi:docname="drawing.svg"
   xmlns:inkscape="http://www.inkscape.org/namespaces/inkscape"
   xmlns:sodipodi="http://sodipodi.sourceforge.net/DTD/sodipodi-0.dtd"
   xmlns="http://www.w3.org/2000/svg"
   xmlns:svg="http://www.w3.org/2000/svg">
  <sodipodi:namedview
     id="namedview7"
     pagecolor="#ffffff"
     bordercolor="#000000"
     borderopacity="0.25"
     inkscape:showpageshadow="2"
     inkscape:pageopacity="0.0"
     inkscape:pagecheckerboard="0"
     inkscape:deskcolor="#d1d1d1"
     inkscape:document-units="mm"
     showgrid="false"
     inkscape:zoom="0.074331525"
     inkscape:cx="-1984.3532"
     inkscape:cy="1809.4611"
     inkscape:window-width="1303"
     inkscape:window-height="638"
     inkscape:window-x="-3"
     inkscape:window-y="116"
     inkscape:window-maximized="0"
     inkscape:current-layer="layer1" />
  <defs
     id="defs2">
    <filter
       inkscape:collect="always"
       style="color-interpolation-filters:sRGB"
       id="filter1212"
       x="-0.25874657"
       y="-0.61297823"
       width="1.5176284"
       height="2.2256632">
      <feGaussianBlur
         inkscape:collect="always"
         stdDeviation="7.4943338"
         id="feGaussianBlur1214" />
    </filter>
  </defs>
  <g
     inkscape:label="Layer 1"
     inkscape:groupmode="layer"
     id="layer1">
    <g
       id="g1166"
       transform="matrix(1.0875714,0,0,1.0569776,60.878005,-18.474654)"
       inkscape:export-filename="pin.png"
       inkscape:export-xdpi="96"
       inkscape:export-ydpi="96">
      <g
         id="g1161">
        <path
           id="path234"
           style="fill:#ffffff;fill-opacity:1;stroke:#000000;stroke-width:4;stroke-linecap:round;stroke-dasharray:none"
           d="m 109.48728,66.69915 c 0,15.290798 -8.62022,30.203388 -27.686438,60.40678 C 62.73462,98.161013 54.114403,81.989948 54.114403,66.69915 c 10e-7,-15.290798 12.395641,-27.686438 27.686439,-27.686439 15.290797,10e-7 27.686438,12.395642 27.686438,27.686439 z"
           sodipodi:nodetypes="scsss"
           inkscape:export-filename="pin.png"
           inkscape:export-xdpi="96"
           inkscape:export-ydpi="96" />
        <circle
           style="fill:#000000;fill-opacity:1;stroke:#000000;stroke-width:4;stroke-linecap:round;stroke-dasharray:none"
           id="path939"
           cx="81.800842"
           cy="65.054016"
           r="11.326271" />
      </g>
    </g>
    <g
       id="g1221"
       transform="matrix(0.87488593,0,0,0.70900393,258.68164,142.25227)"
       inkscape:export-filename="pin2.png"
       inkscape:export-xdpi="119.41451"
       inkscape:export-ydpi="119.41451">
      <path
         id="path1206"
         style="fill:none;fill-opacity:1;stroke:#000000;stroke-width:7.99999;stroke-linecap:round;stroke-opacity:1;filter:url(#filter1212)"
         d="m -194.1543,125.19531 c -12.39529,0.0422 -24.79338,-0.0514 -37.1873,0.0558 -6.14995,0.58208 -11.95078,3.52351 -16.42207,7.72549 -2.86816,2.7992 -5.11687,6.64881 -4.86524,10.77344 0.22562,3.04643 2.13174,5.66831 4.42264,7.56133 3.80648,3.22694 8.56742,5.03766 13.27751,6.49911 8.82408,2.61698 18.09696,3.4152 27.27031,3.24561 9.29237,-0.22267 18.66082,-1.59359 27.34649,-5.00656 3.91123,-1.60481 7.76594,-3.75574 10.47903,-7.07116 1.84041,-2.32556 2.69222,-5.50421 1.81542,-8.39002 -1.11103,-4.27631 -4.4804,-7.5203 -8.05729,-9.88607 -4.47489,-2.96036 -9.65,-4.97734 -15.01354,-5.45202 -1.02034,-0.0634 -2.0439,-0.0613 -3.06596,-0.0549 z" />
      <g
         id="g1149"
         transform="translate(1.2584746,2.5169492)">
        <path
           id="path353"
           style="fill:#000000;stroke:#ffffff;stroke-width:4;stroke-linecap:round;stroke-opacity:1"
           d="m -212.68211,28.945003 a 25.169491,25.169491 0 0 0 -25.16952,25.169523 25.169491,25.169491 0 0 0 13.92886,22.50767 c 0.16913,12.733778 0.933,41.450004 4.39922,50.820674 4.50021,12.166 8.16384,16.04656 8.16384,16.04656 0,0 3.20329,-3.87991 6.82904,-16.04656 2.79465,-9.37777 3.13018,-38.126541 3.13779,-50.846512 a 25.169491,25.169491 0 0 0 13.88029,-22.481832 25.169491,25.169491 0 0 0 -25.16952,-25.169523 z" />
        <circle
           style="fill:#ffffff;stroke:none;stroke-width:4;stroke-linecap:round"
           id="path355"
           cx="-218.34534"
           cy="47.192799"
           r="8.1800852" />
      </g>
      <path
         id="path1203"
         style="fill:none;stroke:#ffffff;stroke-width:7.99999;stroke-linecap:round"
         d="m -191.64442,126.79132 c 8.11622,0.31462 22.37959,7.3247 22.37959,16.36017 0,9.03547 -18.31174,16.36017 -40.90042,16.36017 -22.58868,0 -40.90042,-7.3247 -40.90042,-16.36017 0,-9.03547 12.99048,-16.36017 20.79209,-16.36017"
         sodipodi:nodetypes="csssc" />
    </g>
  </g>
</svg>
